<svg width="345" height="112" viewBox="0 0 345 112" fill="none" xmlns="http://www.w3.org/2000/svg">
<path d="M7.2875 39V16.696H24.5355V17.208H11.8315V24.92H17.9115C22.8715 24.92 26.7435 27 26.7435 31.928C26.7435 37.496 23.9915 39 17.9115 39H7.2875ZM11.8315 38.424H16.5675C21.0155 38.424 22.2635 36.472 22.2635 31.928C22.2635 27.416 19.8955 25.496 16.5675 25.496H11.8315V38.424ZM28.995 31.032C28.995 25.4 33.859 22.488 39.107 22.488C44.323 22.488 49.219 25.4 49.219 31.032C49.219 36.632 44.323 39.512 39.107 39.512C33.859 39.512 28.995 36.632 28.995 31.032ZM39.107 22.968C35.139 22.968 33.667 25.496 33.667 31.032C33.667 36.472 34.755 39.032 39.107 39.032C43.331 39.032 44.547 36.472 44.547 31.032C44.547 25.496 43.107 22.968 39.107 22.968ZM51.8798 39H51.3038L56.7438 23H61.5118L67.7198 39H62.9518L57.0318 23.768L51.8798 39ZM69.1825 31.032C69.1825 25.496 73.8225 22.52 78.8785 22.52C85.5985 22.52 86.3025 27.192 86.3025 32.504H73.9825C74.1745 35.64 75.1665 38.968 78.8785 38.968C81.7905 38.968 84.3825 38.104 86.4625 36.312L86.7185 36.632C84.2225 38.648 82.1105 39.512 79.0705 39.512C72.8305 39.512 69.1825 35.896 69.1825 31.032ZM73.9505 31.992H85.6945C85.6945 27.192 84.7665 23.032 78.8785 23.032C74.7185 23.032 73.9505 27.672 73.9505 31.064V31.992ZM88.6513 31.032C88.6513 25.496 93.2913 22.52 98.3473 22.52C105.067 22.52 105.771 27.192 105.771 32.504H93.4513C93.6433 35.64 94.6353 38.968 98.3473 38.968C101.259 38.968 103.851 38.104 105.931 36.312L106.187 36.632C103.691 38.648 101.579 39.512 98.5393 39.512C92.2993 39.512 88.6513 35.896 88.6513 31.032ZM93.4193 31.992H105.163C105.163 27.192 104.235 23.032 98.3473 23.032C94.1873 23.032 93.4193 27.672 93.4193 31.064V31.992Z" fill="#0F0449"/>
<path d="M122.762 46.456C122.762 34.752 131.274 29.964 143.282 29.964C158.634 29.964 163.954 35.512 163.954 47.14C163.954 58.008 149.97 61.884 141.382 64.848C135.606 66.824 130.894 68.496 128.31 73.208H164.106V84H124.89C124.89 69.256 131.958 66.748 141.002 63.632C150.426 60.364 153.01 58.008 153.01 47.14C153.01 35.968 149.514 31.18 143.282 31.18C133.63 31.18 134.238 40.3 134.238 47.52L122.762 46.456ZM169.816 57.552C169.816 38.552 183.496 29.888 196.036 29.888C208.576 29.888 222.256 38.552 222.256 57.552C222.256 76.932 208.576 85.14 196.036 85.216C183.496 85.14 169.816 76.932 169.816 57.552ZM196.036 31.028C186.916 31.028 180.836 35.968 180.836 57.552C180.836 79.516 186.916 84.152 196.036 84.152C205.156 84.152 211.312 79.364 211.312 57.552C211.312 35.968 205.156 31.028 196.036 31.028Z" fill="#79BF3A"/>
<path d="M307.727 74.978L307.837 73.636C307.94 73.6507 308.035 73.6727 308.123 73.702C308.226 73.7167 308.314 73.724 308.387 73.724C308.857 73.724 309.231 73.548 309.509 73.196C309.803 72.844 310.023 72.3747 310.169 71.788C310.316 71.2013 310.419 70.5413 310.477 69.808C310.536 69.06 310.587 68.312 310.631 67.564L310.829 63.45H319.299V75H317.737V64.352L318.133 64.814H311.841L312.215 64.33L312.039 67.674C311.995 68.6713 311.915 69.6247 311.797 70.534C311.695 71.4433 311.526 72.2427 311.291 72.932C311.071 73.6213 310.763 74.164 310.367 74.56C309.971 74.9413 309.465 75.132 308.849 75.132C308.673 75.132 308.49 75.1173 308.299 75.088C308.123 75.0587 307.933 75.022 307.727 74.978ZM328.69 75.11C327.487 75.11 326.431 74.8607 325.522 74.362C324.612 73.8487 323.901 73.152 323.388 72.272C322.874 71.3773 322.618 70.358 322.618 69.214C322.618 68.07 322.86 67.058 323.344 66.178C323.842 65.298 324.517 64.6087 325.368 64.11C326.233 63.5967 327.201 63.34 328.272 63.34C329.357 63.34 330.318 63.5893 331.154 64.088C332.004 64.572 332.672 65.2613 333.156 66.156C333.64 67.036 333.882 68.0553 333.882 69.214C333.882 69.2873 333.874 69.368 333.86 69.456C333.86 69.5293 333.86 69.61 333.86 69.698H323.806V68.532H333.024L332.408 68.994C332.408 68.158 332.224 67.4173 331.858 66.772C331.506 66.112 331.022 65.5987 330.406 65.232C329.79 64.8653 329.078 64.682 328.272 64.682C327.48 64.682 326.768 64.8653 326.138 65.232C325.507 65.5987 325.016 66.112 324.664 66.772C324.312 67.432 324.136 68.1873 324.136 69.038V69.28C324.136 70.16 324.326 70.9373 324.708 71.612C325.104 72.272 325.646 72.7927 326.336 73.174C327.04 73.5407 327.839 73.724 328.734 73.724C329.438 73.724 330.09 73.5993 330.692 73.35C331.308 73.1007 331.836 72.7193 332.276 72.206L333.156 73.218C332.642 73.834 331.997 74.3033 331.22 74.626C330.457 74.9487 329.614 75.11 328.69 75.11ZM339.024 75V64.396L339.42 64.814H334.646V63.45H344.964V64.814H340.19L340.586 64.396V75H339.024ZM240.617 107V95.45H242.179V100.554H249.461V95.45H251.023V107H249.461V101.896H242.179V107H240.617ZM262.634 107V104.448L262.568 104.03V99.762C262.568 98.7793 262.29 98.024 261.732 97.496C261.19 96.968 260.376 96.704 259.29 96.704C258.542 96.704 257.831 96.8287 257.156 97.078C256.482 97.3273 255.91 97.6573 255.44 98.068L254.736 96.902C255.323 96.4033 256.027 96.022 256.848 95.758C257.67 95.4793 258.535 95.34 259.444 95.34C260.94 95.34 262.092 95.714 262.898 96.462C263.72 97.1953 264.13 98.3173 264.13 99.828V107H262.634ZM258.652 107.11C257.787 107.11 257.032 106.971 256.386 106.692C255.756 106.399 255.272 106.003 254.934 105.504C254.597 104.991 254.428 104.404 254.428 103.744C254.428 103.143 254.568 102.6 254.846 102.116C255.14 101.617 255.609 101.221 256.254 100.928C256.914 100.62 257.794 100.466 258.894 100.466H262.876V101.632H258.938C257.824 101.632 257.046 101.83 256.606 102.226C256.181 102.622 255.968 103.113 255.968 103.7C255.968 104.36 256.225 104.888 256.738 105.284C257.252 105.68 257.97 105.878 258.894 105.878C259.774 105.878 260.53 105.68 261.16 105.284C261.806 104.873 262.275 104.287 262.568 103.524L262.92 104.602C262.627 105.365 262.114 105.973 261.38 106.428C260.662 106.883 259.752 107.11 258.652 107.11ZM280.008 107.11C279.011 107.11 278.109 106.883 277.302 106.428C276.496 105.959 275.85 105.291 275.366 104.426C274.897 103.546 274.662 102.475 274.662 101.214C274.662 99.9527 274.897 98.8893 275.366 98.024C275.836 97.144 276.474 96.4767 277.28 96.022C278.087 95.5673 278.996 95.34 280.008 95.34C281.108 95.34 282.091 95.5893 282.956 96.088C283.836 96.572 284.526 97.2613 285.024 98.156C285.523 99.036 285.772 100.055 285.772 101.214C285.772 102.387 285.523 103.414 285.024 104.294C284.526 105.174 283.836 105.863 282.956 106.362C282.091 106.861 281.108 107.11 280.008 107.11ZM274.046 111.268V95.45H275.542V98.926L275.388 101.236L275.608 103.568V111.268H274.046ZM279.898 105.724C280.72 105.724 281.453 105.541 282.098 105.174C282.744 104.793 283.257 104.265 283.638 103.59C284.02 102.901 284.21 102.109 284.21 101.214C284.21 100.319 284.02 99.5347 283.638 98.86C283.257 98.1853 282.744 97.6573 282.098 97.276C281.453 96.8947 280.72 96.704 279.898 96.704C279.077 96.704 278.336 96.8947 277.676 97.276C277.031 97.6573 276.518 98.1853 276.136 98.86C275.77 99.5347 275.586 100.319 275.586 101.214C275.586 102.109 275.77 102.901 276.136 103.59C276.518 104.265 277.031 104.793 277.676 105.174C278.336 105.541 279.077 105.724 279.898 105.724ZM300.392 107V95.45H301.954V107H300.392ZM293.99 99.52C295.442 99.5347 296.55 99.8573 297.312 100.488C298.075 101.119 298.456 102.028 298.456 103.216C298.456 104.448 298.046 105.394 297.224 106.054C296.403 106.714 295.23 107.037 293.704 107.022L289.128 107V95.45H290.69V99.476L293.99 99.52ZM293.594 105.834C294.68 105.849 295.494 105.636 296.036 105.196C296.594 104.741 296.872 104.081 296.872 103.216C296.872 102.351 296.601 101.72 296.058 101.324C295.516 100.913 294.694 100.701 293.594 100.686L290.69 100.642V105.79L293.594 105.834ZM306.402 107V95.45H307.964V100.554H315.246V95.45H316.808V107H315.246V101.896H307.964V107H306.402ZM329.717 107L324.965 101.28L326.263 100.51L331.565 107H329.717ZM321.247 107V95.45H322.809V107H321.247ZM322.325 101.852V100.51H326.043V101.852H322.325ZM326.395 101.39L324.943 101.17L329.541 95.45H331.235L326.395 101.39ZM338.572 107.11C337.37 107.11 336.314 106.861 335.404 106.362C334.495 105.849 333.784 105.152 333.27 104.272C332.757 103.377 332.5 102.358 332.5 101.214C332.5 100.07 332.742 99.058 333.226 98.178C333.725 97.298 334.4 96.6087 335.25 96.11C336.116 95.5967 337.084 95.34 338.154 95.34C339.24 95.34 340.2 95.5893 341.036 96.088C341.887 96.572 342.554 97.2613 343.038 98.156C343.522 99.036 343.764 100.055 343.764 101.214C343.764 101.287 343.757 101.368 343.742 101.456C343.742 101.529 343.742 101.61 343.742 101.698H333.688V100.532H342.906L342.29 100.994C342.29 100.158 342.107 99.4173 341.74 98.772C341.388 98.112 340.904 97.5987 340.288 97.232C339.672 96.8653 338.961 96.682 338.154 96.682C337.362 96.682 336.651 96.8653 336.02 97.232C335.39 97.5987 334.898 98.112 334.546 98.772C334.194 99.432 334.018 100.187 334.018 101.038V101.28C334.018 102.16 334.209 102.937 334.59 103.612C334.986 104.272 335.529 104.793 336.218 105.174C336.922 105.541 337.722 105.724 338.616 105.724C339.32 105.724 339.973 105.599 340.574 105.35C341.19 105.101 341.718 104.719 342.158 104.206L343.038 105.218C342.525 105.834 341.88 106.303 341.102 106.626C340.34 106.949 339.496 107.11 338.572 107.11Z" fill="#0F0449"/>
</svg>
