<svg width="301" height="380" viewBox="0 0 301 380" fill="none" xmlns="http://www.w3.org/2000/svg">
<path d="M75.575 47V2.392H110.071V3.416H84.663V18.84H96.823C106.743 18.84 114.487 23 114.487 32.856C114.487 43.992 108.983 47 96.823 47H75.575ZM84.663 45.848H94.135C103.031 45.848 105.527 41.944 105.527 32.856C105.527 23.832 100.791 19.992 94.135 19.992H84.663V45.848ZM118.99 31.064C118.99 19.8 128.718 13.976 139.214 13.976C149.646 13.976 159.438 19.8 159.438 31.064C159.438 42.264 149.646 48.024 139.214 48.024C128.718 48.024 118.99 42.264 118.99 31.064ZM139.214 14.936C131.278 14.936 128.334 19.992 128.334 31.064C128.334 41.944 130.51 47.064 139.214 47.064C147.662 47.064 150.094 41.944 150.094 31.064C150.094 19.992 147.214 14.936 139.214 14.936ZM164.76 47H163.608L174.488 15H184.024L196.44 47H186.904L175.064 16.536L164.76 47ZM199.365 31.064C199.365 19.992 208.645 14.04 218.757 14.04C232.197 14.04 233.605 23.384 233.605 34.008H208.965C209.349 40.28 211.333 46.936 218.757 46.936C224.581 46.936 229.765 45.208 233.925 41.624L234.437 42.264C229.445 46.296 225.221 48.024 219.141 48.024C206.661 48.024 199.365 40.792 199.365 31.064ZM208.901 32.984H232.389C232.389 23.384 230.533 15.064 218.757 15.064C210.437 15.064 208.901 24.344 208.901 31.128V32.984ZM238.303 31.064C238.303 19.992 247.583 14.04 257.695 14.04C271.135 14.04 272.543 23.384 272.543 34.008H247.903C248.287 40.28 250.271 46.936 257.695 46.936C263.519 46.936 268.703 45.208 272.863 41.624L273.375 42.264C268.382 46.296 264.159 48.024 258.079 48.024C245.599 48.024 238.303 40.792 238.303 31.064ZM247.839 32.984H271.326C271.326 23.384 269.471 15.064 257.695 15.064C249.375 15.064 247.839 24.344 247.839 31.128V32.984Z" fill="#0F0449"/>
<path d="M36.5073 130.068C36.5073 102.656 56.4433 91.442 84.5673 91.442C120.523 91.442 132.983 104.436 132.983 131.67C132.983 157.124 100.231 166.202 80.1173 173.144C66.5893 177.772 55.5533 181.688 49.5013 192.724H133.339V218H41.4913C41.4913 183.468 58.0453 177.594 79.2273 170.296C101.299 162.642 107.351 157.124 107.351 131.67C107.351 105.504 99.1633 94.29 84.5673 94.29C61.9613 94.29 63.3853 115.65 63.3853 132.56L36.5073 130.068ZM146.714 156.056C146.714 111.556 178.754 91.264 208.124 91.264C237.494 91.264 269.534 111.556 269.534 156.056C269.534 201.446 237.494 220.67 208.124 220.848C178.754 220.67 146.714 201.446 146.714 156.056ZM208.124 93.934C186.764 93.934 172.524 105.504 172.524 156.056C172.524 207.498 186.764 218.356 208.124 218.356C229.484 218.356 243.902 207.142 243.902 156.056C243.902 105.504 229.484 93.934 208.124 93.934Z" fill="#79BF3A"/>
<path d="M188.678 306.952L188.918 304.024C189.142 304.056 189.35 304.104 189.542 304.168C189.766 304.2 189.958 304.216 190.118 304.216C191.142 304.216 191.958 303.832 192.566 303.064C193.206 302.296 193.686 301.272 194.006 299.992C194.326 298.712 194.55 297.272 194.678 295.672C194.806 294.04 194.918 292.408 195.014 290.776L195.446 281.8H213.926V307H210.518V283.768L211.382 284.776H197.654L198.47 283.72L198.086 291.016C197.99 293.192 197.814 295.272 197.558 297.256C197.334 299.24 196.966 300.984 196.454 302.488C195.974 303.992 195.302 305.176 194.438 306.04C193.574 306.872 192.47 307.288 191.126 307.288C190.742 307.288 190.342 307.256 189.926 307.192C189.542 307.128 189.126 307.048 188.678 306.952ZM234.414 307.24C231.79 307.24 229.486 306.696 227.502 305.608C225.518 304.488 223.966 302.968 222.846 301.048C221.726 299.096 221.166 296.872 221.166 294.376C221.166 291.88 221.694 289.672 222.75 287.752C223.838 285.832 225.31 284.328 227.166 283.24C229.054 282.12 231.166 281.56 233.502 281.56C235.87 281.56 237.966 282.104 239.79 283.192C241.646 284.248 243.102 285.752 244.158 287.704C245.214 289.624 245.742 291.848 245.742 294.376C245.742 294.536 245.726 294.712 245.694 294.904C245.694 295.064 245.694 295.24 245.694 295.432H223.758V292.888H243.87L242.526 293.896C242.526 292.072 242.126 290.456 241.326 289.048C240.558 287.608 239.502 286.488 238.158 285.688C236.814 284.888 235.262 284.488 233.502 284.488C231.774 284.488 230.222 284.888 228.846 285.688C227.47 286.488 226.398 287.608 225.63 289.048C224.862 290.488 224.478 292.136 224.478 293.992V294.52C224.478 296.44 224.894 298.136 225.726 299.608C226.59 301.048 227.774 302.184 229.278 303.016C230.814 303.816 232.558 304.216 234.51 304.216C236.046 304.216 237.47 303.944 238.782 303.4C240.126 302.856 241.278 302.024 242.238 300.904L244.158 303.112C243.038 304.456 241.63 305.48 239.934 306.184C238.27 306.888 236.43 307.24 234.414 307.24ZM256.961 307V283.864L257.825 284.776H247.409V281.8H269.921V284.776H259.505L260.369 283.864V307H256.961ZM42.2543 367V341.8H45.6623V352.936H61.5503V341.8H64.9583V367H61.5503V355.864H45.6623V367H42.2543ZM90.2929 367V361.432L90.1489 360.52V351.208C90.1489 349.064 89.5409 347.416 88.3249 346.264C87.1409 345.112 85.3649 344.536 82.9969 344.536C81.3649 344.536 79.8129 344.808 78.3409 345.352C76.8689 345.896 75.6209 346.616 74.5969 347.512L73.0609 344.968C74.3409 343.88 75.8769 343.048 77.6689 342.472C79.4609 341.864 81.3489 341.56 83.3329 341.56C86.5969 341.56 89.1089 342.376 90.8689 344.008C92.6609 345.608 93.5569 348.056 93.5569 351.352V367H90.2929ZM81.6049 367.24C79.7169 367.24 78.0689 366.936 76.6609 366.328C75.2849 365.688 74.2289 364.824 73.4929 363.736C72.7569 362.616 72.3889 361.336 72.3889 359.896C72.3889 358.584 72.6929 357.4 73.3009 356.344C73.9409 355.256 74.9649 354.392 76.3729 353.752C77.8129 353.08 79.7329 352.744 82.1329 352.744H90.8209V355.288H82.2289C79.7969 355.288 78.1009 355.72 77.1409 356.584C76.2129 357.448 75.7489 358.52 75.7489 359.8C75.7489 361.24 76.3089 362.392 77.4289 363.256C78.5489 364.12 80.1169 364.552 82.1329 364.552C84.0529 364.552 85.7009 364.12 87.0769 363.256C88.4849 362.36 89.5089 361.08 90.1489 359.416L90.9169 361.768C90.2769 363.432 89.1569 364.76 87.5569 365.752C85.9889 366.744 84.0049 367.24 81.6049 367.24ZM128.2 367.24C126.024 367.24 124.056 366.744 122.296 365.752C120.536 364.728 119.128 363.272 118.072 361.384C117.048 359.464 116.536 357.128 116.536 354.376C116.536 351.624 117.048 349.304 118.072 347.416C119.096 345.496 120.488 344.04 122.248 343.048C124.008 342.056 125.992 341.56 128.2 341.56C130.6 341.56 132.744 342.104 134.632 343.192C136.552 344.248 138.056 345.752 139.144 347.704C140.232 349.624 140.776 351.848 140.776 354.376C140.776 356.936 140.232 359.176 139.144 361.096C138.056 363.016 136.552 364.52 134.632 365.608C132.744 366.696 130.6 367.24 128.2 367.24ZM115.192 376.312V341.8H118.456V349.384L118.12 354.424L118.6 359.512V376.312H115.192ZM127.96 364.216C129.752 364.216 131.352 363.816 132.76 363.016C134.168 362.184 135.288 361.032 136.12 359.56C136.952 358.056 137.368 356.328 137.368 354.376C137.368 352.424 136.952 350.712 136.12 349.24C135.288 347.768 134.168 346.616 132.76 345.784C131.352 344.952 129.752 344.536 127.96 344.536C126.168 344.536 124.552 344.952 123.112 345.784C121.704 346.616 120.584 347.768 119.752 349.24C118.952 350.712 118.552 352.424 118.552 354.376C118.552 356.328 118.952 358.056 119.752 359.56C120.584 361.032 121.704 362.184 123.112 363.016C124.552 363.816 126.168 364.216 127.96 364.216ZM172.674 367V341.8H176.082V367H172.674ZM158.706 350.68C161.874 350.712 164.29 351.416 165.954 352.792C167.618 354.168 168.45 356.152 168.45 358.744C168.45 361.432 167.554 363.496 165.762 364.936C163.97 366.376 161.41 367.08 158.082 367.048L148.098 367V341.8H151.506V350.584L158.706 350.68ZM157.842 364.456C160.21 364.488 161.986 364.024 163.17 363.064C164.386 362.072 164.994 360.632 164.994 358.744C164.994 356.856 164.402 355.48 163.218 354.616C162.034 353.72 160.242 353.256 157.842 353.224L151.506 353.128V364.36L157.842 364.456ZM185.786 367V341.8H189.194V352.936H205.082V341.8H208.49V367H205.082V355.864H189.194V367H185.786ZM236.656 367L226.288 354.52L229.12 352.84L240.688 367H236.656ZM218.176 367V341.8H221.584V367H218.176ZM220.528 355.768V352.84H228.64V355.768H220.528ZM229.408 354.76L226.24 354.28L236.272 341.8H239.968L229.408 354.76ZM255.976 367.24C253.352 367.24 251.048 366.696 249.064 365.608C247.08 364.488 245.528 362.968 244.408 361.048C243.288 359.096 242.728 356.872 242.728 354.376C242.728 351.88 243.256 349.672 244.312 347.752C245.4 345.832 246.872 344.328 248.728 343.24C250.616 342.12 252.728 341.56 255.064 341.56C257.432 341.56 259.528 342.104 261.352 343.192C263.208 344.248 264.664 345.752 265.72 347.704C266.776 349.624 267.304 351.848 267.304 354.376C267.304 354.536 267.288 354.712 267.256 354.904C267.256 355.064 267.256 355.24 267.256 355.432H245.32V352.888H265.432L264.088 353.896C264.088 352.072 263.688 350.456 262.888 349.048C262.12 347.608 261.064 346.488 259.72 345.688C258.376 344.888 256.824 344.488 255.064 344.488C253.336 344.488 251.784 344.888 250.408 345.688C249.032 346.488 247.96 347.608 247.192 349.048C246.424 350.488 246.04 352.136 246.04 353.992V354.52C246.04 356.44 246.456 358.136 247.288 359.608C248.152 361.048 249.336 362.184 250.84 363.016C252.376 363.816 254.12 364.216 256.072 364.216C257.608 364.216 259.032 363.944 260.344 363.4C261.688 362.856 262.84 362.024 263.8 360.904L265.72 363.112C264.6 364.456 263.192 365.48 261.496 366.184C259.832 366.888 257.992 367.24 255.976 367.24Z" fill="#0F0449"/>
</svg>
