<svg width="119" height="97" viewBox="0 0 119 97" fill="none" xmlns="http://www.w3.org/2000/svg">
<path d="M91.0004 85.0004L90.53 84.1179L91.0004 85.0004ZM0.000335718 85.0005L6.94655 94.2246L11.4617 83.5969L0.000335718 85.0005ZM109.5 0.500431C108.584 0.901587 108.584 0.901475 108.584 0.901595C108.584 0.901937 108.584 0.90228 108.584 0.902973C108.585 0.904351 108.586 0.906647 108.587 0.909847C108.59 0.916254 108.595 0.926298 108.6 0.939941C108.612 0.967219 108.63 1.00887 108.654 1.06452C108.701 1.17582 108.771 1.34311 108.86 1.56343C109.04 2.0041 109.299 2.65678 109.614 3.49783C110.244 5.18019 111.095 7.61477 111.978 10.6126C113.745 16.6126 115.632 24.8467 116.126 33.8095C117.116 51.7376 112.545 72.3817 90.53 84.1179L91.0004 85.0004L91.4708 85.8828C114.455 73.6296 119.134 52.0237 118.123 33.6993C117.618 24.5358 115.692 16.1429 113.897 10.0475C112.998 6.9976 112.131 4.51738 111.487 2.79686C111.165 1.93647 110.899 1.2657 110.712 0.808269C110.619 0.579542 110.546 0.404124 110.495 0.284976C110.47 0.225405 110.451 0.179896 110.437 0.148818C110.431 0.133282 110.425 0.121353 110.422 0.113084C110.42 0.108946 110.419 0.105719 110.418 0.103417C110.417 0.102269 110.417 0.101227 110.416 0.100653C110.416 0.0998486 110.416 0.0992752 109.5 0.500431ZM91.0004 85.0004L90.53 84.1179C57.4508 101.753 23.7837 93.1771 8.63261 87.5827L8.28623 88.5208L7.93984 89.4589C23.2807 95.1234 57.6352 103.921 91.4708 85.8828L91.0004 85.0004Z" fill="#79BF3A"/>
</svg>
