<svg width="521" height="231" viewBox="0 0 521 231" fill="none" xmlns="http://www.w3.org/2000/svg">
<path d="M0 119.7L22.5044 53.8171H36.6634L61.9809 119.7H48.0093L23.4421 56.0859L1.68784 119.7H0ZM69.4546 72.4384H82.7698V101.079C87.0829 81.7016 100.117 71.2096 120.089 70.9262C135.374 70.9262 149.72 79.5278 149.72 96.1638C149.72 112.706 135.374 121.213 120.089 121.213C104.711 121.213 90.4587 112.706 90.4587 96.1638C90.4587 89.2636 92.8965 83.7811 96.8349 79.7166C84.5512 89.0744 82.7698 105.427 82.7698 119.7H69.4546V72.4384ZM104.149 96.1638C104.149 112.233 107.337 119.795 120.089 119.795C132.467 119.795 136.03 112.233 136.03 96.1638C136.03 79.8113 131.81 72.3438 120.089 72.3438C108.462 72.3438 104.149 79.8113 104.149 96.1638ZM204.988 119.7H153.977V118.093C157.916 118.093 159.51 116.392 165.605 98.5268L174.513 72.4384H188.484C195.236 90.1144 199.736 100.417 206.206 118.188C211.926 118.944 215.771 123.576 215.771 129.247C215.771 135.297 210.895 140.306 204.8 140.306C198.705 140.306 193.829 135.297 193.829 129.247H195.329C195.329 134.446 199.549 138.699 204.8 138.699C210.051 138.699 214.271 134.446 214.271 129.247C214.271 123.954 210.051 119.795 204.988 119.7ZM160.26 116.014C159.697 116.959 159.041 117.621 158.478 118.188H192.141L175.451 74.8014L167.105 99.0941C164.198 107.506 162.135 112.989 160.26 116.014ZM219.813 119.7V72.4384H233.128V118.093C240.442 118.093 262.477 114.785 264.259 78.5825V72.4384H277.574V119.7H264.259V90.9651C260.79 106.94 250.569 119.7 233.128 119.7H219.813Z" fill="#0F0449"/>
<path d="M220.668 209.792V143.91H234.17V174.913H242.516L248.986 175.291L268.302 143.91H270.177L250.674 175.48C270.834 178.41 276.554 190.698 276.554 209.792H263.051C263.051 193.818 262.582 176.142 242.235 176.142H234.17V209.792H220.668ZM303.895 209.792L275.108 162.531H289.83L315.804 205.633C321.992 187.863 329.588 166.311 330.9 162.531H332.588C331.838 164.61 316.273 208.374 310.74 224.632C309.521 228.224 305.77 230.587 301.457 230.587C295.737 230.587 291.049 225.956 291.049 220.19C291.049 214.424 295.737 209.792 301.363 209.792H303.895ZM292.643 220.19C292.643 225.01 296.487 229.075 301.27 229.075C304.927 229.075 308.115 227.09 309.24 224.065C310.459 220.757 311.959 216.409 313.741 211.399H301.363C296.581 211.399 292.643 215.369 292.643 220.19ZM338.109 162.531H353.675L365.959 179.072L378.336 162.531H380.305L366.99 180.395L388.838 209.792H373.273L359.207 190.887L345.142 209.792H343.173L358.176 189.564L338.109 162.531ZM409.615 209.792H396.301V162.531H409.615V184.082H440.559V162.531H453.875V209.792H440.559V185.594H409.615V209.792ZM463.239 209.792V162.531H476.555V208.185C483.87 208.185 505.903 204.877 507.684 168.675V162.531H521V209.792H507.684V181.057C504.217 197.031 493.993 209.792 476.555 209.792H463.239Z" fill="#0F0449"/>
<path d="M337.297 3C318.17 6.83402 308.307 9.84589 292.823 17.8676C299.857 43.7019 304.406 58.1767 314.997 83.5131C325.389 53.2767 330.539 35.8409 337.297 3Z" stroke="#79BF3A" stroke-width="4"/>
<path d="M315.015 105.979C318.82 105.979 321.912 109.088 321.912 112.932C321.912 116.776 318.82 119.886 315.015 119.886C311.209 119.886 308.117 116.776 308.117 112.932C308.118 109.088 311.209 105.979 315.015 105.979Z" fill="#79BF3A" stroke="#79BF3A"/>
</svg>
